<?xml version="1.0" encoding="UTF-8" standalone="no"?>
<!-- Created with Inkscape (http://www.inkscape.org/) -->

<svg
   width="5mm"
   height="5mm"
   viewBox="0 0 5 5"
   version="1.1"
   id="svg5"
   inkscape:version="1.1 (c4e8f9ed74, 2021-05-24)"
   sodipodi:docname="grabber.svg"
   xmlns:inkscape="http://www.inkscape.org/namespaces/inkscape"
   xmlns:sodipodi="http://sodipodi.sourceforge.net/DTD/sodipodi-0.dtd"
   xmlns="http://www.w3.org/2000/svg"
   xmlns:svg="http://www.w3.org/2000/svg">
  <sodipodi:namedview
     id="namedview7"
     pagecolor="#ffffff"
     bordercolor="#666666"
     borderopacity="1.0"
     inkscape:pageshadow="2"
     inkscape:pageopacity="0.0"
     inkscape:pagecheckerboard="0"
     inkscape:document-units="mm"
     showgrid="false"
     width="20mm"
     inkscape:zoom="11.313708"
     inkscape:cx="7.9107571"
     inkscape:cy="11.269514"
     inkscape:window-width="1276"
     inkscape:window-height="828"
     inkscape:window-x="0"
     inkscape:window-y="0"
     inkscape:window-maximized="1"
     inkscape:current-layer="layer1" />
  <defs
     id="defs2" />
  <g
     inkscape:label="Layer 1"
     inkscape:groupmode="layer"
     id="layer1">
    <circle
       style="opacity:0.99;fill:#cccccc;stroke-width:0.0661455"
       id="path31"
       cx="2.5"
       cy="2.5"
       r="2.5" />
    <path
       id="circle2764"
       style="opacity:0.99;fill:#666666;stroke-width:0.0661451"
       d="M 2.5002585,1.5053761e-8 A 2.4999841,2.4999842 0 0 0 1.5059167e-8,2.5002586 2.4999841,2.4999842 0 0 0 2.5002585,5 2.4999841,2.4999842 0 0 0 5,2.5002586 2.4999841,2.4999842 0 0 0 2.5002585,1.5053761e-8 Z m 0,0.418691214946239 A 2.0816175,2.0816176 0 0 1 4.5818258,2.5002586 2.0816175,2.0816176 0 0 1 2.5002585,4.5818258 2.0816175,2.0816176 0 0 1 0.41869123,2.5002586 2.0816175,2.0816176 0 0 1 2.5002585,0.41869123 Z" />
  </g>
</svg>
