<?xml version="1.0" encoding="UTF-8" standalone="no"?>
<!-- Created with Inkscape (http://www.inkscape.org/) -->

<svg
   width="50mm"
   height="50mm"
   viewBox="0 0 50 50"
   version="1.1"
   id="svg5"
   inkscape:version="1.1 (c4e8f9ed74, 2021-05-24)"
   sodipodi:docname="settings.svg"
   xmlns:inkscape="http://www.inkscape.org/namespaces/inkscape"
   xmlns:sodipodi="http://sodipodi.sourceforge.net/DTD/sodipodi-0.dtd"
   xmlns="http://www.w3.org/2000/svg"
   xmlns:svg="http://www.w3.org/2000/svg">
  <sodipodi:namedview
     id="namedview7"
     pagecolor="#ffffff"
     bordercolor="#666666"
     borderopacity="1.0"
     inkscape:pageshadow="2"
     inkscape:pageopacity="0.0"
     inkscape:pagecheckerboard="0"
     inkscape:document-units="mm"
     showgrid="false"
     inkscape:zoom="2.6832492"
     inkscape:cx="84.039902"
     inkscape:cy="113.29548"
     inkscape:window-width="1014"
     inkscape:window-height="985"
     inkscape:window-x="0"
     inkscape:window-y="0"
     inkscape:window-maximized="1"
     inkscape:current-layer="layer1"
     width="50mm" />
  <defs
     id="defs2" />
  <g
     inkscape:label="Layer 1"
     inkscape:groupmode="layer"
     id="layer1">
    <rect
       style="opacity:0.99;fill:#808080;stroke-width:0.12726"
       id="rect75"
       width="7.7747254"
       height="6.7854123"
       x="21.112637"
       y="4.4753661"
       ry="2.3392963" />
    <rect
       style="opacity:0.99;fill:#808080;stroke-width:0.133963"
       id="rect75-6"
       width="7.892621"
       height="7.4067044"
       x="21.08"
       y="37.901829"
       ry="2.5534892" />
    <rect
       style="opacity:0.99;fill:#808080;stroke-width:0.12726"
       id="rect294"
       width="7.7747254"
       height="6.7854123"
       x="20.978275"
       y="-45.442894"
       ry="2.3392963"
       transform="rotate(90)" />
    <rect
       style="opacity:0.99;fill:#808080;stroke-width:0.133963"
       id="rect296"
       width="7.892621"
       height="7.4067044"
       x="20.945639"
       y="-12.016432"
       ry="2.5534892"
       transform="rotate(90)" />
    <path
       id="path91"
       style="opacity:0.99;fill:#808080;stroke-width:0.17989"
       d="M 25.000021,8.0025604 A 16.997474,16.997474 0 0 0 8.0025603,25.000021 16.997474,16.997474 0 0 0 25.000021,41.997481 16.997474,16.997474 0 0 0 41.997481,25.000021 16.997474,16.997474 0 0 0 25.000021,8.0025604 Z m 0,4.8573556 A 12.139985,12.139985 0 0 1 37.140127,25.000021 12.139985,12.139985 0 0 1 25.000021,37.140127 12.139985,12.139985 0 0 1 12.859916,25.000021 12.139985,12.139985 0 0 1 25.000021,12.859916 Z" />
    <rect
       style="opacity:0.99;fill:#ececec;stroke-width:0.123411"
       id="rect47"
       width="6.2999167"
       height="7.8748956"
       x="21.850042"
       y="5.3127608"
       ry="2.7148991" />
    <rect
       style="opacity:0.99;fill:#808080;stroke-width:0.12726"
       id="rect298"
       width="7.7747254"
       height="6.7854123"
       x="31.383865"
       y="-20.511591"
       ry="2.3392963"
       transform="rotate(45)" />
    <rect
       style="opacity:0.99;fill:#ececec;stroke-width:0.123411"
       id="rect47-3"
       width="6.2999167"
       height="7.8748956"
       x="21.850042"
       y="36.812344"
       ry="2.7148991" />
    <rect
       style="opacity:0.99;fill:#808080;stroke-width:0.133963"
       id="rect300"
       width="7.892621"
       height="7.4067044"
       x="31.351229"
       y="12.914871"
       ry="2.5534892"
       transform="rotate(45)" />
    <rect
       style="opacity:0.99;fill:#ececec;stroke-width:0.123411"
       id="rect476"
       width="6.2999167"
       height="7.8748956"
       x="21.850042"
       y="-44.687241"
       ry="2.7148991"
       transform="rotate(90)" />
    <rect
       style="opacity:0.99;fill:#808080;stroke-width:0.12726"
       id="rect302"
       width="7.7747254"
       height="6.7854123"
       x="-4.0086818"
       y="-55.714123"
       ry="2.3392963"
       transform="rotate(135)" />
    <rect
       style="opacity:0.99;fill:#ececec;stroke-width:0.123411"
       id="rect478"
       width="6.2999167"
       height="7.8748956"
       x="21.850042"
       y="-13.187656"
       ry="2.7148991"
       transform="rotate(90)" />
    <rect
       style="opacity:0.99;fill:#808080;stroke-width:0.133963"
       id="rect304"
       width="7.892621"
       height="7.4067044"
       x="-4.0413184"
       y="-22.287661"
       ry="2.5534892"
       transform="rotate(135)" />
    <rect
       style="opacity:0.99;fill:#ececec;stroke-width:0.123411"
       id="rect480"
       width="6.2999167"
       height="7.8748956"
       x="32.205379"
       y="-19.687239"
       ry="2.7148991"
       transform="rotate(45)" />
    <rect
       style="opacity:0.99;fill:#ececec;stroke-width:0.123411"
       id="rect482"
       width="6.2999167"
       height="7.8748956"
       x="32.205379"
       y="11.812344"
       ry="2.7148991"
       transform="rotate(45)" />
    <rect
       style="opacity:0.99;fill:#ececec;stroke-width:0.123411"
       id="rect484"
       width="6.2999167"
       height="7.8748956"
       x="-3.1499584"
       y="15.668099"
       ry="2.7148991"
       transform="rotate(-45)" />
    <path
       id="path37"
       style="opacity:0.99;fill:#999999;stroke-width:0.132786"
       d="M 25.000019,12.453374 A 12.546656,12.546656 0 0 0 12.453374,25.000019 12.546656,12.546656 0 0 0 25.000019,37.546664 12.546656,12.546656 0 0 0 37.546664,25.000019 12.546656,12.546656 0 0 0 25.000019,12.453374 Z m 0,3.585448 a 8.9611078,8.9611078 0 0 1 8.961198,8.961197 8.9611078,8.9611078 0 0 1 -8.961198,8.961198 8.9611078,8.9611078 0 0 1 -8.961197,-8.961198 8.9611078,8.9611078 0 0 1 8.961197,-8.961197 z" />
    <rect
       style="opacity:0.99;fill:#ececec;stroke-width:0.123411"
       id="rect486"
       width="6.2999167"
       height="7.8748956"
       x="-3.1499584"
       y="47.167683"
       ry="2.7148991"
       transform="rotate(-45)" />
    <path
       id="path532"
       style="opacity:0.99;fill:#ececec;stroke-width:0.16223"
       d="M 25.000019,9.6712327 A 15.328799,15.328799 0 0 0 9.6712327,25.000019 15.328799,15.328799 0 0 0 25.000019,40.328805 15.328799,15.328799 0 0 0 40.328805,25.000019 15.328799,15.328799 0 0 0 25.000019,9.6712327 Z m 0,4.3804993 A 10.948178,10.948178 0 0 1 35.948307,25.000019 10.948178,10.948178 0 0 1 25.000019,35.948307 10.948178,10.948178 0 0 1 14.051732,25.000019 10.948178,10.948178 0 0 1 25.000019,14.051732 Z" />
  </g>
</svg>
